<?xml version="1.0" standalone="no"?>
<!DOCTYPE svg PUBLIC "-//W3C//DTD SVG 20010904//EN"
 "http://www.w3.org/TR/2001/REC-SVG-20010904/DTD/svg10.dtd">
<svg version="1.0" xmlns="http://www.w3.org/2000/svg"
 width="6807.000000pt" height="6807.000000pt" viewBox="0 0 6807.000000 6807.000000"
 preserveAspectRatio="xMidYMid meet">

<g transform="translate(0.000000,6807.000000) scale(0.100000,-0.100000)"
fill="#000000" stroke="none">
<path d="M46850 49789 c-1356 -60 -2576 -909 -3109 -2163 -315 -739 -370
-1585 -156 -2358 125 -449 360 -905 661 -1283 113 -142 398 -427 539 -539 541
-430 1137 -678 1845 -768 141 -18 648 -17 795 0 264 33 557 100 784 182 1184
424 2048 1410 2306 2630 83 393 97 855 39 1260 -41 286 -145 648 -263 912
-265 596 -673 1095 -1202 1475 -275 197 -575 350 -900 461 -320 109 -652 175
-944 187 -66 3 -147 7 -180 8 -33 2 -130 0 -215 -4z m572 -113 c70 -9 205 -31
299 -50 95 -19 177 -32 182 -29 6 3 7 1 3 -5 -4 -7 7 -14 31 -18 21 -4 62 -15
91 -25 28 -10 52 -15 52 -11 0 3 5 1 12 -6 7 -7 19 -12 28 -12 15 0 91 -28
175 -65 17 -7 81 -34 143 -60 61 -26 112 -52 112 -56 0 -5 5 -9 12 -9 22 0
127 -53 122 -62 -3 -4 -2 -8 3 -9 28 -2 47 -9 62 -23 10 -9 23 -16 29 -16 7 0
12 -4 12 -10 0 -5 7 -10 15 -10 8 0 15 -4 15 -9 0 -5 13 -14 29 -19 31 -11
117 -66 167 -106 18 -14 35 -26 38 -26 3 0 14 -8 24 -17 10 -10 35 -31 56 -48
21 -16 47 -38 58 -47 12 -10 24 -18 28 -18 3 0 17 -10 30 -22 52 -49 93 -77
103 -71 6 4 7 1 2 -6 -5 -8 6 -24 31 -44 21 -18 66 -61 99 -96 33 -35 74 -78
90 -95 17 -17 50 -56 75 -86 24 -30 51 -62 60 -71 8 -9 22 -26 30 -39 8 -12
35 -47 59 -78 76 -99 192 -282 186 -292 -3 -6 1 -10 9 -10 9 0 16 -6 16 -13 0
-8 9 -22 20 -32 11 -10 20 -26 20 -36 0 -10 5 -21 11 -24 5 -4 21 -30 33 -58
32 -72 44 -98 60 -127 24 -45 45 -95 52 -122 3 -16 9 -28 13 -28 4 0 15 -25
25 -55 9 -30 22 -55 27 -55 6 0 8 -4 5 -8 -2 -4 11 -52 30 -107 18 -55 34
-108 34 -117 0 -10 4 -18 8 -18 4 0 8 -8 9 -17 5 -53 9 -73 14 -73 10 0 31
-129 23 -142 -4 -6 -3 -8 3 -5 11 7 38 -119 49 -225 3 -29 8 -60 12 -68 8 -23
10 -39 18 -242 4 -104 11 -188 16 -188 4 0 8 -18 8 -40 0 -22 -4 -40 -10 -40
-6 0 -10 -47 -10 -121 0 -66 -3 -118 -7 -116 -5 3 -6 -17 -4 -45 4 -59 -6
-121 -19 -113 -6 3 -7 0 -4 -8 7 -18 -33 -252 -48 -287 -6 -14 -10 -31 -9 -39
3 -19 -58 -239 -76 -274 -8 -15 -11 -36 -8 -48 5 -16 4 -19 -6 -14 -9 6 -11 4
-6 -8 3 -9 3 -17 -1 -19 -11 -5 -62 -141 -62 -166 0 -12 -3 -22 -8 -22 -7 0
-15 -16 -76 -150 -29 -62 -60 -119 -75 -137 -6 -6 -13 -23 -17 -37 -3 -14 -12
-30 -20 -37 -8 -6 -14 -18 -14 -25 0 -8 -4 -14 -9 -14 -5 0 -14 -12 -20 -27
-11 -28 -18 -39 -55 -98 -44 -70 -71 -110 -77 -115 -3 -3 -25 -32 -50 -65 -24
-33 -46 -62 -49 -65 -3 -3 -25 -32 -50 -65 -25 -33 -80 -96 -122 -139 -43 -44
-78 -83 -78 -87 0 -4 -9 -10 -19 -14 -11 -3 -23 -15 -26 -26 -4 -10 -13 -19
-21 -19 -8 0 -14 -5 -14 -10 0 -6 -23 -32 -52 -58 -28 -26 -66 -62 -85 -79
-18 -18 -36 -33 -40 -33 -4 0 -16 -9 -28 -20 -11 -11 -60 -51 -110 -89 -49
-38 -102 -79 -117 -90 -14 -12 -31 -21 -37 -21 -6 0 -11 -4 -11 -10 0 -5 -6
-10 -14 -10 -7 0 -19 -7 -26 -16 -8 -8 -27 -22 -44 -30 -17 -7 -49 -25 -71
-39 -22 -14 -67 -39 -100 -56 -33 -18 -62 -35 -65 -39 -8 -11 -221 -109 -295
-135 -27 -10 -54 -22 -60 -27 -5 -4 -17 -8 -26 -8 -10 0 -24 -6 -31 -12 -7 -7
-22 -15 -33 -16 -11 -2 -54 -14 -95 -27 -41 -13 -87 -27 -103 -31 -15 -3 -30
-10 -33 -15 -3 -5 -18 -9 -34 -9 -16 0 -39 -4 -52 -9 -13 -5 -51 -15 -85 -22
-35 -7 -63 -17 -63 -22 0 -4 -4 -6 -9 -2 -6 3 -63 -3 -128 -14 -65 -11 -172
-25 -238 -31 -66 -6 -149 -13 -185 -16 -77 -7 -535 12 -594 25 -22 5 -66 14
-96 20 -30 5 -92 17 -138 26 -45 9 -86 13 -91 10 -5 -3 -12 -1 -15 4 -4 5 -37
16 -74 25 -91 21 -434 133 -474 156 -10 6 -25 10 -33 10 -8 0 -15 4 -15 9 0 5
-10 13 -22 16 -42 13 -133 57 -139 67 -4 6 -14 8 -24 5 -9 -4 -14 -3 -11 2 3
4 -15 17 -39 27 -25 10 -45 21 -45 25 0 4 -8 9 -17 13 -17 5 -29 12 -118 65
-68 40 -202 132 -224 152 -11 10 -23 19 -27 19 -10 0 -91 60 -118 86 -11 12
-43 38 -71 59 -56 43 -95 82 -95 95 0 5 -10 12 -21 15 -22 7 -189 168 -189
183 0 4 -12 18 -26 31 -14 14 -42 45 -62 70 -19 25 -43 53 -51 61 -20 19 -144
185 -195 262 -22 32 -47 66 -57 77 -10 10 -15 21 -13 24 3 3 -13 33 -35 67
-23 34 -41 67 -41 75 0 7 -3 15 -7 17 -5 2 -19 28 -33 58 -14 30 -28 57 -31
60 -8 7 -74 143 -75 155 0 6 -19 50 -42 99 -23 48 -39 92 -36 97 3 5 0 9 -5 9
-6 0 -11 14 -11 30 0 17 -5 30 -12 30 -6 0 -9 3 -5 6 3 3 -3 29 -13 58 -10 28
-26 80 -34 116 -9 36 -23 81 -30 100 -8 19 -18 56 -21 83 -3 26 -10 47 -15 47
-5 0 -7 7 -4 14 3 8 -1 39 -9 68 -19 68 -41 254 -35 301 2 19 1 34 -3 32 -9
-6 -19 159 -19 324 1 136 19 374 39 501 4 30 6 61 3 69 -3 9 -1 12 6 7 8 -5
12 2 12 21 0 15 7 62 16 103 9 41 17 84 19 95 3 29 16 65 24 65 3 0 6 20 6 44
0 24 3 42 6 40 8 -5 24 54 20 74 -1 6 3 12 9 12 6 0 10 6 9 13 -2 6 5 30 15
52 9 22 18 52 18 67 1 15 5 25 10 22 4 -3 8 1 8 8 0 8 9 30 19 51 10 20 22 48
25 62 10 40 88 205 97 205 5 0 5 7 2 17 -5 12 -3 14 7 8 10 -6 12 -4 7 8 -3 9
-3 17 1 19 11 5 52 84 52 101 0 8 3 17 8 19 10 4 62 85 62 96 0 5 9 17 20 27
11 10 20 26 20 36 0 10 5 21 11 25 6 3 27 32 46 63 20 31 39 58 42 61 3 3 22
28 41 55 19 28 40 56 46 63 7 6 16 21 19 32 4 11 10 18 15 15 5 -3 16 8 25 25
8 16 19 30 23 30 4 0 30 28 57 61 73 89 103 119 120 119 8 0 15 7 15 15 0 21
60 76 74 68 6 -3 8 -2 3 2 -7 8 49 75 63 75 4 0 38 30 76 66 38 36 81 72 97
80 15 8 27 18 27 23 0 5 21 21 46 36 25 15 54 35 63 44 19 19 147 108 194 134
18 10 50 29 72 42 22 13 77 43 123 66 45 23 82 46 82 52 0 5 9 7 20 4 11 -3
20 -2 20 2 0 8 134 71 150 71 5 0 21 6 37 14 84 40 121 56 148 61 32 7 77 22
110 36 36 15 233 69 253 69 12 0 24 5 27 10 3 6 24 10 46 10 28 0 38 4 33 12
-4 7 -3 8 5 4 6 -4 35 -3 64 3 89 19 277 43 387 51 152 11 504 3 652 -14z"/>
<path d="M20745 25303 c-525 -42 -957 -159 -1390 -376 -618 -309 -1156 -825
-1508 -1446 -233 -413 -393 -931 -437 -1419 -16 -173 -8 -625 14 -782 169
-1197 880 -2195 1946 -2729 508 -254 1016 -374 1585 -375 253 0 378 10 613 50
1366 229 2492 1260 2846 2606 41 158 68 294 93 478 23 169 25 654 5 825 -100
820 -452 1552 -1016 2118 -613 615 -1388 974 -2261 1047 -110 9 -395 11 -490
3z m615 -110 c30 -4 69 -7 87 -7 17 -1 29 -4 27 -7 -5 -9 82 -20 101 -13 8 4
15 2 15 -4 0 -5 20 -13 45 -17 29 -4 43 -10 39 -17 -5 -7 -1 -9 9 -5 18 7 137
-12 137 -22 0 -3 11 -7 25 -7 13 -1 48 -9 77 -18 29 -10 60 -18 68 -20 8 -2
28 -8 43 -14 16 -7 34 -12 40 -12 11 0 140 -50 222 -85 17 -8 48 -21 70 -30
22 -9 48 -20 57 -25 10 -6 24 -10 32 -10 8 0 16 -4 18 -8 2 -4 47 -30 101 -57
55 -28 110 -60 123 -72 14 -13 31 -23 38 -23 8 0 19 -7 26 -16 8 -8 27 -22 44
-30 69 -33 97 -52 246 -163 117 -87 202 -162 347 -307 108 -108 194 -187 197
-181 3 7 4 5 3 -3 -2 -15 39 -75 81 -120 13 -13 30 -37 38 -52 8 -16 19 -28
24 -28 5 0 11 -8 15 -19 3 -10 17 -32 31 -47 37 -43 44 -53 44 -59 0 -6 40
-65 50 -75 3 -3 11 -16 18 -30 7 -14 18 -34 25 -45 83 -136 194 -354 236 -465
12 -30 25 -64 30 -75 26 -60 36 -88 62 -170 16 -49 29 -94 29 -98 0 -5 6 -23
14 -40 8 -18 17 -45 20 -62 2 -16 9 -48 15 -70 20 -83 62 -303 71 -370 11 -81
14 -118 25 -316 8 -154 -8 -543 -26 -589 -5 -14 -11 -45 -13 -70 -2 -25 -14
-97 -26 -160 -20 -107 -35 -166 -91 -345 -12 -38 -22 -76 -22 -82 0 -7 -4 -13
-9 -13 -4 0 -8 -11 -8 -25 0 -21 -27 -90 -90 -230 -10 -22 -30 -67 -44 -100
-15 -33 -36 -76 -47 -95 -11 -19 -31 -59 -45 -87 -13 -29 -29 -53 -34 -53 -6
0 -10 -7 -10 -16 0 -9 -21 -48 -47 -88 -27 -39 -47 -74 -45 -78 1 -5 -3 -8 -8
-8 -6 0 -10 -5 -10 -11 0 -11 -20 -40 -72 -103 -16 -19 -28 -38 -28 -42 0 -5
-15 -25 -33 -46 -84 -95 -97 -110 -97 -115 0 -3 -12 -19 -27 -36 -16 -16 -44
-48 -63 -70 -19 -21 -68 -72 -107 -113 -40 -41 -73 -79 -73 -84 0 -6 -6 -10
-14 -10 -8 0 -30 -15 -49 -32 -19 -18 -43 -41 -53 -50 -10 -9 -24 -22 -31 -28
-35 -35 -65 -60 -71 -60 -4 0 -29 -21 -57 -46 -27 -26 -52 -46 -55 -47 -13 0
-50 -21 -50 -28 0 -4 -10 -11 -21 -14 -12 -4 -34 -19 -49 -34 -16 -14 -45 -35
-67 -46 -21 -11 -40 -22 -43 -25 -18 -18 -69 -48 -92 -54 -16 -3 -28 -11 -28
-16 0 -9 -120 -70 -139 -70 -5 0 -11 -4 -13 -8 -3 -8 -66 -39 -193 -97 -82
-38 -196 -76 -206 -69 -5 3 -9 2 -9 -3 0 -4 -15 -14 -32 -21 -18 -7 -48 -20
-66 -28 -18 -8 -45 -14 -60 -14 -16 0 -32 -4 -37 -9 -6 -4 -38 -14 -72 -21
-35 -7 -63 -15 -63 -19 0 -3 -17 -7 -38 -9 -20 -1 -48 -6 -62 -12 -14 -5 -41
-11 -60 -14 -19 -2 -57 -9 -85 -15 -27 -7 -82 -14 -122 -16 -40 -2 -77 -6 -81
-8 -4 -3 -52 -8 -107 -12 -55 -3 -109 -9 -120 -11 -12 -3 -15 -2 -8 3 6 4 -68
6 -165 5 -222 -5 -502 21 -639 57 -21 6 -47 10 -58 10 -25 0 -152 35 -161 44
-4 4 -18 7 -30 7 -13 0 -33 4 -46 9 -13 5 -61 21 -107 36 -47 14 -98 32 -115
39 -17 8 -56 22 -86 31 -30 10 -82 31 -115 47 -33 16 -87 41 -119 54 -33 13
-63 29 -66 34 -3 5 -18 11 -33 12 -15 1 -29 8 -31 15 -3 6 -31 25 -63 41 -77
38 -182 104 -215 135 -15 13 -29 23 -32 20 -3 -3 -12 1 -21 8 -8 8 -21 19 -28
24 -7 6 -25 19 -42 29 -16 11 -34 23 -40 28 -5 4 -30 24 -53 43 -24 19 -48 32
-53 29 -5 -3 -9 2 -9 11 0 9 -13 24 -30 33 -16 9 -30 23 -30 30 0 6 -6 12 -13
12 -16 0 -67 51 -67 67 0 6 -15 18 -34 27 -19 9 -44 28 -54 41 -11 14 -24 25
-30 25 -5 0 -17 10 -25 23 -9 12 -36 44 -61 71 -25 27 -43 53 -40 58 3 5 1 7
-3 6 -13 -4 -152 146 -177 191 -5 9 -16 22 -23 29 -7 7 -13 17 -13 21 0 5 -16
25 -35 45 -19 21 -35 42 -35 47 0 6 -20 38 -44 73 -24 34 -47 72 -50 84 -4 12
-11 22 -16 22 -5 0 -12 10 -16 23 -3 12 -15 34 -25 48 -10 15 -41 70 -67 123
-27 53 -53 92 -57 88 -5 -4 -5 -2 -2 4 3 5 -7 38 -23 71 -16 33 -32 74 -36 89
-4 16 -10 34 -14 39 -13 16 -62 137 -66 162 -3 13 -18 63 -35 111 -17 48 -34
108 -39 134 -5 26 -13 56 -19 67 -6 11 -11 31 -11 45 0 14 -5 26 -11 26 -5 0
-8 4 -5 9 4 5 -3 53 -13 108 -70 356 -80 815 -26 1143 18 107 52 284 64 330
21 84 51 189 60 212 5 14 7 29 4 32 -4 3 -1 6 5 6 7 0 12 10 12 23 0 22 49
155 88 240 11 23 35 77 52 120 18 42 37 77 41 77 5 0 9 6 9 13 0 18 47 114 60
122 5 3 10 14 10 24 0 10 7 24 15 31 9 7 23 29 32 49 9 20 29 52 45 72 15 20
28 40 28 43 0 4 23 37 50 75 28 38 50 72 50 76 0 4 9 17 19 29 56 61 81 91 81
97 0 4 22 31 50 60 27 29 52 61 56 71 3 9 14 20 25 23 10 4 19 10 19 15 0 12
234 244 274 273 17 12 41 32 52 44 12 13 26 23 33 23 6 0 11 6 11 14 0 8 9 18
20 21 11 3 20 10 20 14 0 5 14 14 30 21 17 7 30 18 30 24 0 12 63 56 80 56 6
0 21 11 33 24 12 13 45 36 72 51 28 16 52 31 55 34 8 10 54 38 64 39 5 0 12 4
15 9 3 4 29 19 56 33 28 14 52 27 55 30 11 11 134 70 146 70 7 0 14 4 16 8 4
12 159 84 165 78 3 -3 18 3 32 12 29 20 485 169 503 164 4 -1 49 8 100 19 110
24 108 24 223 38 50 6 122 16 160 21 75 9 623 4 715 -7z m-303 -6929 c-3 -3
-12 -4 -19 -1 -8 3 -5 6 6 6 11 1 17 -2 13 -5z"/>
</g>
</svg>
